# xmcd
#
# Track frame offsets:
#	150
#	13367
#	26050
#	40210
#	50172
#	64547
#	74557
#	87279
#	100942
#	111345
#	127762
#	138387
#	152270
#	167110
#	180512
#	194102
#	206434
#	220342
#	237130
#	253175
#	269685
#	290300
#	307432
#	319172
#	335640
#
# Disc length: 4666 seconds
#
# Revision: 0
# Processed by: cddbd v1.5.2PL0 Copyright (c) Steve Scherf et al.
# Submitted via: dBpowerAMP V4.0
#
DISCID=87123819
DTITLE=Various Artist - Country Super Pohoda CD1
DYEAR=1900
DGENRE=Country
TTITLE0=Country Boy
TTITLE1=Blues Hvizdaveho Vlaku
TTITLE2=Cekej Tise
TTITLE3=Az Te Nahodou Potkam
TTITLE4=Galveston
TTITLE5=Patrim Sem
TTITLE6=Nejhezci Kraj
TTITLE7=Nahodou Jsme Tu Chvili
TTITLE8=Hotel Zvon
TTITLE9=Hlidej Muj Spanek, Lasko
TTITLE10=Ja Smyl Spinu Rosou Pruhlednou
TTITLE11=Zbyl Mi Jen Tvuj Mokasin
TTITLE12=Tvym Snum Zlym
TTITLE13=Sam Se Svou Kytarou
TTITLE14=Pojd se Mnou Touhle Ulici
TTITLE15=Cesta Ma Za Tebou
TTITLE16=Doktorat z Prusvihu
TTITLE17=Toulavy Dziny
TTITLE18=Cim Vetsi Bloud
TTITLE19=Zvony
TTITLE20=Modra z Dzin
TTITLE21=Sedlo z Bodlaku
TTITLE22=Z Cesty Dlouhy Se Zas Vracim
TTITLE23=Muz Na Konci Sveta
TTITLE24=Mam Te Rad Kdyz Spis
EXTD=
EXTT0=
EXTT1=
EXTT2=
EXTT3=
EXTT4=
EXTT5=
EXTT6=
EXTT7=
EXTT8=
EXTT9=
EXTT10=
EXTT11=
EXTT12=
EXTT13=
EXTT14=
EXTT15=
EXTT16=
EXTT17=
EXTT18=
EXTT19=
EXTT20=
EXTT21=
EXTT22=
EXTT23=
EXTT24=
PLAYORDER=
